<svg xmlns="http://www.w3.org/2000/svg" viewBox="0 0 64 64">
  <g fill="#e63946">
    <rect x="14" y="6" width="4" height="4"/>
    <rect x="46" y="6" width="4" height="4"/>
    <rect x="18" y="10" width="4" height="4"/>
    <rect x="42" y="10" width="4" height="4"/>
    <rect x="6" y="14" width="4" height="4"/>
    <rect x="54" y="14" width="4" height="4"/>
    <rect x="6" y="18" width="4" height="4"/>
    <rect x="10" y="18" width="4" height="4"/>
    <rect x="50" y="18" width="4" height="4"/>
    <rect x="54" y="18" width="4" height="4"/>
    <rect x="10" y="22" width="4" height="4"/>
    <rect x="50" y="22" width="4" height="4"/>
    <rect x="2" y="26" width="4" height="4"/>
    <rect x="6" y="26" width="4" height="4"/>
    <rect x="10" y="26" width="8" height="4"/>
    <rect x="46" y="26" width="8" height="4"/>
    <rect x="58" y="26" width="4" height="4"/>
    <rect x="54" y="26" width="4" height="4"/>
    <rect x="2" y="30" width="4" height="4"/>
    <rect x="6" y="30" width="4" height="4"/>
    <rect x="10" y="30" width="4" height="4"/>
    <rect x="50" y="30" width="4" height="4"/>
    <rect x="54" y="30" width="4" height="4"/>
    <rect x="58" y="30" width="4" height="4"/>
    <rect x="22" y="18" width="4" height="4"/>
    <rect x="38" y="18" width="4" height="4"/>
    <rect x="22" y="22" width="4" height="4"/>
    <rect x="26" y="22" width="16" height="4"/>
    <rect x="38" y="22" width="4" height="4"/>
    <rect x="18" y="26" width="4" height="4"/>
    <rect x="22" y="26" width="24" height="4"/>
    <rect x="46" y="26" width="4" height="4"/>
    <rect x="22" y="30" width="24" height="4"/>
    <rect x="18" y="34" width="32" height="4"/>
    <rect x="22" y="38" width="24" height="4"/>
    <rect x="22" y="42" width="24" height="4"/>
    <rect x="26" y="46" width="16" height="4"/>
    <rect x="22" y="50" width="4" height="4"/>
    <rect x="42" y="50" width="4" height="4"/>
    <rect x="26" y="54" width="4" height="4"/>
    <rect x="38" y="54" width="4" height="4"/>
    <rect x="18" y="54" width="4" height="4"/>
    <rect x="46" y="54" width="4" height="4"/>
    <rect x="14" y="58" width="4" height="4"/>
    <rect x="50" y="58" width="4" height="4"/>
    <rect x="22" y="58" width="4" height="4"/>
    <rect x="42" y="58" width="4" height="4"/>
    <rect x="18" y="62" width="4" height="2"/>
    <rect x="46" y="62" width="4" height="2"/>
  </g>
  <rect x="26" y="22" width="4" height="4" fill="#f4f0ea"/>
  <rect x="38" y="22" width="4" height="4" fill="#f4f0ea"/>
</svg>
